<?xml version="1.0" encoding="UTF-8" standalone="no"?>
<!DOCTYPE svg PUBLIC "-//W3C//DTD SVG 1.1//EN" "http://www.w3.org/Graphics/SVG/1.1/DTD/svg11.dtd">
<!-- 由 Microsoft Visio, SVG Export 生成 bridge.svg Page-1 -->
<svg xmlns="http://www.w3.org/2000/svg" xmlns:xlink="http://www.w3.org/1999/xlink" xmlns:ev="http://www.w3.org/2001/xml-events"
		width="23.8031in" height="11.6929in" viewBox="0 0 1713.83 841.89" xml:space="preserve" color-interpolation-filters="sRGB"
		class="st70">
	<style type="text/css">
	<![CDATA[
		.st1 {fill:#d8d8d8;stroke:#000000;stroke-linecap:round;stroke-linejoin:round;stroke-width:0.5}
		.st2 {fill:#000000;font-family:宋体;font-size:1.16666em}
		.st3 {fill:#dbeef3;stroke:#000000;stroke-dasharray:5.25,3.75;stroke-linecap:round;stroke-linejoin:round;stroke-width:0.75}
		.st4 {fill:#fff2cc;stroke:#000000;stroke-dasharray:5.25,3.75;stroke-linecap:round;stroke-linejoin:round;stroke-width:0.75}
		.st5 {fill:#ffffff;stroke:#000000;stroke-dasharray:5.25,3.75;stroke-linecap:round;stroke-linejoin:round;stroke-width:0.75}
		.st6 {visibility:visible}
		.st7 {fill:#000000;fill-opacity:0.4;filter:url(#filter_2.6666667461395);stroke:#000000;stroke-linecap:round;stroke-linejoin:round;stroke-opacity:0.4}
		.st8 {fill:#ffc000;stroke:#000000;stroke-linecap:round;stroke-linejoin:round;stroke-width:0.24}
		.st9 {fill:#000000;font-family:宋体;font-size:0.833336em}
		.st10 {fill:#7f7f7f;stroke:#000000;stroke-linecap:round;stroke-linejoin:round;stroke-width:0.24}
		.st11 {fill:#000000;font-family:宋体;font-size:1.00001em}
		.st12 {fill:#ffffff;stroke:#000000;stroke-linecap:round;stroke-linejoin:round;stroke-width:0.24}
		.st13 {fill:#000000;font-family:宋体;font-size:1.5em}
		.st14 {fill:#000000;font-family:宋体;font-size:0.833336em;font-weight:bold}
		.st15 {fill:#000000;fill-opacity:0.4;filter:url(#filter_2.6666667461395)}
		.st16 {fill:none;filter:url(#filter_2.6666667461395);stroke:none;stroke-linecap:round;stroke-linejoin:round}
		.st17 {fill:#dde2cd}
		.st18 {stroke:none;stroke-linecap:round;stroke-linejoin:round;stroke-width:0.75}
		.st19 {stroke:#000000;stroke-linecap:round;stroke-linejoin:round;stroke-width:0.24}
		.st20 {fill:#ffffff;stroke:#dde2cd;stroke-linecap:round;stroke-linejoin:round;stroke-width:0.24;visibility:hidden}
		.st21 {fill:#fee599;stroke:#000000;stroke-linecap:round;stroke-linejoin:round;stroke-width:1.5}
		.st22 {fill:#dde2cd;stroke:#000000;stroke-linecap:round;stroke-linejoin:round;stroke-width:0.24}
		.st23 {fill:#000000;font-family:宋体;font-size:0.666664em}
		.st24 {fill:#000000;font-family:宋体;font-size:0.75em;font-weight:bold}
		.st25 {font-family:Microsoft Sans Serif;font-size:1em;font-weight:normal}
		.st26 {fill:#0070c0;font-family:Microsoft Sans Serif;font-size:1em;font-weight:normal}
		.st27 {fill:#000000;font-family:幼圆;font-size:0.666664em}
		.st28 {font-family:微软雅黑;font-size:1em;font-weight:normal}
		.st29 {marker-end:url(#mrkr1-125);marker-start:url(#mrkr1-123);stroke:#ff0000;stroke-linecap:round;stroke-linejoin:round;stroke-width:0.239976}
		.st30 {fill:#ff0000;fill-opacity:1;stroke:#ff0000;stroke-opacity:1;stroke-width:0.086948582161584}
		.st31 {marker-end:url(#mrkr1-134);marker-start:url(#mrkr1-132);stroke:#0c0c0c;stroke-linecap:round;stroke-linejoin:round;stroke-width:0.239976}
		.st32 {fill:#0c0c0c;fill-opacity:1;stroke:#0c0c0c;stroke-opacity:1;stroke-width:0.086948582161584}
		.st33 {marker-end:url(#mrkr1-152);marker-start:url(#mrkr1-150);stroke:#000000;stroke-linecap:round;stroke-linejoin:round;stroke-width:0.75}
		.st34 {fill:#000000;fill-opacity:1;stroke:#000000;stroke-opacity:1;stroke-width:0.18796992481203}
		.st35 {fill:#ffffff;stroke:none;stroke-linecap:butt;stroke-width:7.2}
		.st36 {fill:#000000;font-family:微软雅黑;font-size:0.666664em}
		.st37 {fill:none;stroke:none;stroke-linecap:round;stroke-linejoin:round;stroke-width:0.75}
		.st38 {marker-end:url(#mrkr5-166);stroke:#000000;stroke-linecap:round;stroke-linejoin:round;stroke-width:0.239976}
		.st39 {fill:#000000;fill-opacity:1;stroke:#000000;stroke-opacity:1;stroke-width:0.086948582161584}
		.st40 {marker-end:url(#mrkr5-166);stroke:#000000;stroke-dasharray:0.239976,0.479952;stroke-linecap:round;stroke-linejoin:round;stroke-width:0.239976}
		.st41 {fill:#000000;font-family:宋体;font-size:1.33333em}
		.st42 {fill:#ffffff;stroke:#000000;stroke-dasharray:0.24,0.48;stroke-linecap:round;stroke-linejoin:round;stroke-width:0.24}
		.st43 {fill:#dde2cd;stroke:#000000;stroke-dasharray:0.24,0.48;stroke-linecap:round;stroke-linejoin:round;stroke-width:0.24}
		.st44 {marker-end:url(#mrkr1-220);marker-start:url(#mrkr1-218);stroke:#c00000;stroke-linecap:round;stroke-linejoin:round;stroke-width:0.75}
		.st45 {fill:#c00000;fill-opacity:1;stroke:#c00000;stroke-opacity:1;stroke-width:0.18796992481203}
		.st46 {fill:#ff0000;font-family:宋体;font-size:0.833336em}
		.st47 {fill:#000000;font-family:宋体;font-size:0.75em}
		.st48 {fill:#ffc000;stroke:#ff0000;stroke-linecap:round;stroke-linejoin:round;stroke-width:0.24}
		.st49 {marker-end:url(#mrkr1-255);stroke:#ff0000;stroke-linecap:round;stroke-linejoin:round;stroke-width:1.5}
		.st50 {fill:#ff0000;fill-opacity:1;stroke:#ff0000;stroke-opacity:1;stroke-width:0.37313432835821}
		.st51 {marker-end:url(#mrkr1-264);stroke:#000000;stroke-linecap:round;stroke-linejoin:round;stroke-width:1.5}
		.st52 {fill:#000000;fill-opacity:1;stroke:#000000;stroke-opacity:1;stroke-width:0.37313432835821}
		.st53 {marker-start:url(#mrkr1-284);stroke:#ff0000;stroke-linecap:round;stroke-linejoin:round;stroke-width:1.5}
		.st54 {marker-end:url(#mrkr1-125);stroke:#ff0000;stroke-linecap:round;stroke-linejoin:round;stroke-width:0.239976}
		.st55 {marker-start:url(#mrkr1-123);stroke:#ff0000;stroke-linecap:round;stroke-linejoin:round;stroke-width:0.239976}
		.st56 {fill:#ff0000;font-family:宋体;font-size:1.00001em}
		.st57 {font-family:Microsoft Sans Serif;font-size:0.749994em}
		.st58 {marker-end:url(#mrkr5-366);stroke:#000000;stroke-linecap:round;stroke-linejoin:round;stroke-width:1.5}
		.st59 {marker-start:url(#mrkr1-374);stroke:#000000;stroke-linecap:round;stroke-linejoin:round;stroke-width:1.5}
		.st60 {fill:#d8d8d8;stroke:#000000;stroke-dasharray:0.24,0.48;stroke-linecap:round;stroke-linejoin:round;stroke-width:0.24}
		.st61 {font-family:Wingdings;font-size:1em}
		.st62 {font-family:Microsoft Sans Serif;font-size:1em}
		.st63 {font-family:Microsoft Sans Serif;font-size:0.899997em}
		.st64 {font-family:Calibri;font-size:0.899997em}
		.st65 {font-family:微软雅黑;font-size:0.899997em}
		.st66 {fill:#000000;font-family:幼圆;font-size:0.833336em;font-weight:bold}
		.st67 {marker-end:url(#mrkr1-463);marker-start:url(#mrkr1-461);stroke:#000000;stroke-linecap:round;stroke-linejoin:round;stroke-width:0.239976}
		.st68 {fill:#dde2cd;stroke:#000000;stroke-dasharray:1.68,1.2;stroke-linecap:round;stroke-linejoin:round;stroke-width:0.24}
		.st69 {font-size:1em}
		.st70 {fill:none;fill-rule:evenodd;font-size:12px;overflow:visible;stroke-linecap:square;stroke-miterlimit:3}
	]]>
	</style>

	<defs id="Markers">
		<g id="lend1">
			<path d="M 1 -1 L 0 0 L 1 1 " style="stroke-linecap:round;stroke-linejoin:round;fill:none"/>
		</g>
		<marker id="mrkr1-123" class="st30" orient="auto" markerUnits="strokeWidth" overflow="visible">
			<use xlink:href="#lend1" transform="scale(11.501050105011) "/>
		</marker>
		<marker id="mrkr1-125" class="st30" orient="auto" markerUnits="strokeWidth" overflow="visible">
			<use xlink:href="#lend1" transform="scale(-11.501050105011,-11.501050105011) "/>
		</marker>
		<marker id="mrkr1-132" class="st32" orient="auto" markerUnits="strokeWidth" overflow="visible">
			<use xlink:href="#lend1" transform="scale(11.501050105011) "/>
		</marker>
		<marker id="mrkr1-134" class="st32" orient="auto" markerUnits="strokeWidth" overflow="visible">
			<use xlink:href="#lend1" transform="scale(-11.501050105011,-11.501050105011) "/>
		</marker>
		<marker id="mrkr1-150" class="st34" orient="auto" markerUnits="strokeWidth" overflow="visible">
			<use xlink:href="#lend1" transform="scale(5.32) "/>
		</marker>
		<marker id="mrkr1-152" class="st34" orient="auto" markerUnits="strokeWidth" overflow="visible">
			<use xlink:href="#lend1" transform="scale(-5.32,-5.32) "/>
		</marker>
		<g id="lend5">
			<path d="M 2 1 L 0 0 L 1.98117 -0.993387 C 1.67173 -0.364515 1.67301 0.372641 1.98465 1.00043 " style="stroke:none"/>
		</g>
		<marker id="mrkr5-166" class="st39" refX="-18.626687668767" orient="auto" markerUnits="strokeWidth" overflow="visible">
			<use xlink:href="#lend5" transform="scale(-11.501050105011,-11.501050105011) "/>
		</marker>
		<marker id="mrkr1-218" class="st45" orient="auto" markerUnits="strokeWidth" overflow="visible">
			<use xlink:href="#lend1" transform="scale(5.32) "/>
		</marker>
		<marker id="mrkr1-220" class="st45" orient="auto" markerUnits="strokeWidth" overflow="visible">
			<use xlink:href="#lend1" transform="scale(-5.32,-5.32) "/>
		</marker>
		<marker id="mrkr1-255" class="st50" orient="auto" markerUnits="strokeWidth" overflow="visible">
			<use xlink:href="#lend1" transform="scale(-2.68,-2.68) "/>
		</marker>
		<marker id="mrkr1-264" class="st52" orient="auto" markerUnits="strokeWidth" overflow="visible">
			<use xlink:href="#lend1" transform="scale(-2.68,-2.68) "/>
		</marker>
		<marker id="mrkr1-284" class="st50" orient="auto" markerUnits="strokeWidth" overflow="visible">
			<use xlink:href="#lend1" transform="scale(2.68) "/>
		</marker>
		<marker id="mrkr5-366" class="st52" refX="-4.45" orient="auto" markerUnits="strokeWidth" overflow="visible">
			<use xlink:href="#lend5" transform="scale(-2.68,-2.68) "/>
		</marker>
		<marker id="mrkr1-374" class="st52" orient="auto" markerUnits="strokeWidth" overflow="visible">
			<use xlink:href="#lend1" transform="scale(2.68) "/>
		</marker>
		<marker id="mrkr1-461" class="st39" orient="auto" markerUnits="strokeWidth" overflow="visible">
			<use xlink:href="#lend1" transform="scale(11.501050105011) "/>
		</marker>
		<marker id="mrkr1-463" class="st39" orient="auto" markerUnits="strokeWidth" overflow="visible">
			<use xlink:href="#lend1" transform="scale(-11.501050105011,-11.501050105011) "/>
		</marker>
	</defs>
	<defs id="Filters">
		<filter id="filter_2.6666667461395">
			<feGaussianBlur stdDeviation="2.6666667461395"/>
		</filter>
	</defs>
	<g>
		<title>页-1</title>
		<g id="shape306-1" transform="translate(516.756,-145.984)">
			<title>矩形.306</title>
			<desc>主机</desc>
			<rect x="0" y="420.945" width="711.496" height="420.945" class="st1"/>
			<text x="4" y="437.54" class="st2">主机</text>		</g>
		<g id="shape74-4" transform="translate(545.102,-181.732)">
			<title>矩形.74</title>
			<desc>Link Layer</desc>
			<path d="M0 841.89 L416.69 841.89 L416.69 673.39 L0 673.39 L0 841.89 Z" class="st3"/>
			<text x="4" y="689.99" class="st2">Link Layer</text>		</g>
		<g id="shape73-7" transform="translate(545.102,-348.11)">
			<title>矩形.73</title>
			<desc>Network Layer</desc>
			<path d="M0 841.89 L416.69 841.89 L416.69 778.98 L0 778.98 L0 841.89 Z" class="st4"/>
			<text x="4" y="795.58" class="st2">Network Layer</text>		</g>
		<g id="shape1-10" transform="translate(545.102,-411.024)">
			<title>矩形</title>
			<desc>Protocol Layer</desc>
			<path d="M0 841.89 L416.69 841.89 L416.69 819.92 L0 819.92 L0 841.89 Z" class="st5"/>
			<text x="4" y="836.52" class="st2">Protocol Layer</text>		</g>
		<g id="shape8-13" transform="translate(615.356,-510.236)">
			<title>矩形.8</title>
			<desc>app1</desc>
			<g id="shadow8-14" transform="matrix(1,0,0,1,-2.12132,2.12132)" class="st6">
				<rect x="0" y="813.543" width="76.5354" height="28.3465" class="st7"/>
			</g>
			<rect x="0" y="813.543" width="76.5354" height="28.3465" class="st8"/>
			<text x="28.27" y="830.72" class="st9">app1</text>		</g>
		<g id="shape22-19" transform="translate(705.26,-510.236)">
			<title>矩形.22</title>
			<desc>app2</desc>
			<g id="shadow22-20" transform="matrix(1,0,0,1,-2.12132,2.12132)" class="st6">
				<rect x="0" y="813.543" width="76.5354" height="28.3465" class="st7"/>
			</g>
			<rect x="0" y="813.543" width="76.5354" height="28.3465" class="st8"/>
			<text x="28.27" y="830.72" class="st9">app2</text>		</g>
		<g id="shape35-25" transform="translate(634.394,-135.906)">
			<title>矩形.35</title>
			<desc>em1</desc>
			<g id="shadow35-26" transform="matrix(1,0,0,1,-2.12132,2.12132)" class="st6">
				<rect x="0" y="821.89" width="54" height="20" class="st7"/>
			</g>
			<rect x="0" y="821.89" width="54" height="20" class="st10"/>
			<text x="18" y="835.49" class="st11">em1</text>		</g>
		<g id="group44-31" transform="translate(695.874,-159.922)">
			<title>工作表.44</title>
			<g id="shape40-32" transform="translate(-1.41732,-92.0862)">
				<title>矩形.40</title>
				<desc>br0</desc>
				<rect x="0" y="778.976" width="171.496" height="62.9134" class="st12"/>
				<text x="4" y="799.18" class="st13">br0</text>			</g>
		</g>
		<g id="shape185-35" transform="translate(615.969,-155.906)">
			<title>椭圆形</title>
			<desc>bridge check</desc>
			<path d="M0 834.8 A94.6929 7.08661 0 0 1 189.39 834.8 A94.6929 7.08661 0 0 1 0 834.8 Z" class="st12"/>
			<text x="64.46" y="837.8" class="st14">bridge check</text>		</g>
		<g id="group11-38" transform="translate(545.102,-481.89)">
			<title>开放/闭合条</title>
			<g id="shape12-39">
				<title>工作表.12</title>
				<g id="shadow12-40" transform="matrix(1,0,0,1,-2.12132,2.12132)" class="st6">
					<path d="M0 841.89 L651.97 841.89 L651.97 837.64 L0 837.64 L0 841.89 Z" class="st15"/>
					<path d="M0 841.89 L651.97 841.89 L651.97 837.64 L0 837.64" class="st16"/>
				</g>
				<path d="M0 841.89 L651.97 841.89 L651.97 837.64 L0 837.64 L0 841.89 Z" class="st17"/>
				<path d="M0 841.89 L651.97 841.89 L651.97 837.64 L0 837.64" class="st18"/>
			</g>
			<g id="shape13-47">
				<title>工作表.13</title>
				<path d="M0 841.89 L651.97 841.89 L0 841.89 ZM0 837.64 L651.97 837.64 L0 837.64 Z" class="st17"/>
				<path d="M0 841.89 L651.97 841.89" class="st19"/>
				<path d="" class="st19"/>
				<path d="M0 837.64 L651.97 837.64" class="st19"/>
				<path d="" class="st19"/>
				<path d="M0 841.89 L0 837.64" class="st19"/>
				<path d="M651.97 841.89 L651.97 837.64" class="st19"/>
			</g>
			<g id="shape14-55" transform="translate(-0.36,-0.24)">
				<title>工作表.14</title>
				<rect x="0" y="838.118" width="0.48" height="3.77197" class="st20"/>
			</g>
			<g id="shape15-57" transform="translate(651.969,-0.24)">
				<title>工作表.15</title>
				<rect x="0" y="838.118" width="0.24" height="3.77197" class="st20"/>
			</g>
		</g>
		<g id="shape81-59" transform="translate(545.102,-453.543)">
			<title>矩形.81</title>
			<desc>VFS</desc>
			<g id="shadow81-60" transform="matrix(1,0,0,1,-2.12132,2.12132)" class="st6">
				<rect x="0" y="821.89" width="595.276" height="20" class="st7"/>
			</g>
			<rect x="0" y="821.89" width="595.276" height="20" class="st21"/>
			<text x="288.64" y="835.49" class="st11">VFS</text>		</g>
		<g id="shape68-65" transform="translate(695.874,-240.945)">
			<title>框.42</title>
			<desc>em2.100</desc>
			<rect x="0" y="827.717" width="38.6142" height="14.1732" class="st22"/>
			<text x="5.31" y="837.2" class="st23">em2.100</text>		</g>
		<g id="shape75-68" transform="translate(719.433,-135.906)">
			<title>矩形.75</title>
			<desc>em2</desc>
			<g id="shadow75-69" transform="matrix(1,0,0,1,-2.12132,2.12132)" class="st6">
				<rect x="0" y="821.89" width="54" height="20" class="st7"/>
			</g>
			<rect x="0" y="821.89" width="54" height="20" class="st10"/>
			<text x="18" y="835.49" class="st11">em2</text>		</g>
		<g id="shape79-74" transform="translate(724.22,-263.484)">
			<title>圆形</title>
			<desc>Bridging decision (em2.100, br0, tap0,tap1,tap2,tap...)</desc>
			<path d="M0 821.91 A58.6457 19.9803 0 0 1 117.29 821.91 A58.6457 19.9803 0 1 1 0 821.91 Z" class="st22"/>
			<text x="20.1" y="813.81" class="st24">Bridging decision <tspan x="29.44" dy="1.2em" class="st25">(</tspan><tspan
						class="st26">em</tspan><tspan class="st26">2</tspan><tspan class="st26">.</tspan><tspan class="st26">100</tspan><tspan
						class="st26">, </tspan><tspan class="st26">br</tspan><tspan class="st26">0</tspan><tspan class="st26">, </tspan><tspan
						x="17.12" dy="1.2em" class="st26">tap</tspan><tspan class="st26">0</tspan><tspan class="st26">,</tspan><tspan
						class="st26">tap</tspan><tspan class="st26">1</tspan><tspan class="st26">,</tspan><tspan class="st26">tap</tspan><tspan
						class="st26">2</tspan><tspan class="st26">,</tspan><tspan class="st26">tap</tspan><tspan class="st26">...</tspan><tspan
						class="st25">)</tspan></text>		</g>
		<g id="shape80-98" transform="translate(860.819,-299.738)">
			<title>框.80</title>
			<desc>tap0</desc>
			<rect x="0" y="829.817" width="24.4409" height="12.0729" class="st22"/>
			<text x="4.22" y="838.25" class="st27">tap0</text>		</g>
		<g id="shape225-101" transform="translate(657.606,-360)">
			<title>圆形.225</title>
			<desc>Routing decision em1, br0, tun0</desc>
			<path d="M0 821.91 A94.6929 19.9803 0 1 1 189.39 821.91 A94.6929 19.9803 0 1 1 0 821.91 Z" class="st22"/>
			<text x="54.38" y="818.83" class="st14">Routing decision <tspan x="52.57" dy="1.212em" class="st28">（</tspan><tspan
						class="st26">em</tspan><tspan class="st26">1</tspan><tspan class="st26">, </tspan><tspan class="st26">br</tspan><tspan
						class="st26">0</tspan><tspan class="st26">, </tspan><tspan class="st26">tun</tspan><tspan class="st26">0</tspan><tspan
						class="st28">）</tspan></text>		</g>
		<g id="shape85-114" transform="translate(903.339,-369.98)">
			<title>框.85</title>
			<desc>tun0</desc>
			<rect x="0" y="829.231" width="24.4409" height="12.6591" class="st22"/>
			<text x="4.22" y="837.96" class="st23">tun0</text>		</g>
		<g id="shape104-117" transform="translate(594.325,-307.457) rotate(-23.3333)">
			<title>曲线连接 2</title>
			<path d="M0 841.89 A167.786 167.786 -180 0 0 92.61 841.89" class="st29"/>
		</g>
		<g id="shape110-126" transform="translate(1476.96,1180.6) rotate(153.237)">
			<title>曲线连接 2.110</title>
			<path d="M-0 841.89 A219.39 219.39 0 0 1 238.1 841.89" class="st31"/>
		</g>
		<g id="shape129-135" transform="translate(794.551,-510.236)">
			<title>矩形.129</title>
			<desc>...</desc>
			<g id="shadow129-136" transform="matrix(1,0,0,1,-2.12132,2.12132)" class="st6">
				<rect x="0" y="813.543" width="76.5354" height="28.3465" class="st7"/>
			</g>
			<rect x="0" y="813.543" width="76.5354" height="28.3465" class="st8"/>
			<text x="30.77" y="830.72" class="st9">...</text>		</g>
		<g id="shape136-141" transform="translate(545.102,-431.575)">
			<title>矩形.136</title>
			<desc>Application Layer</desc>
			<path d="M0 841.89 L416.69 841.89 L416.69 819.92 L0 819.92 L0 841.89 Z" class="st5"/>
			<text x="4" y="836.52" class="st2">Application Layer</text>		</g>
		<g id="shape151-144" transform="translate(-173.48,685.984) rotate(-90)">
			<title>流导向符 1.151</title>
			<desc>em1 NOT bridge</desc>
			<path d="M0 841.89 L214.81 841.89" class="st33"/>
			<rect x="74.1515" y="837.09" width="66.5041" height="9.59985" class="st35"/>
			<text x="76.52" y="844.29" class="st36">em1 NOT bridge</text>		</g>
		<g id="shape178-155" transform="translate(1097.86,-486.063)">
			<title>工作表.178</title>
			<desc>User</desc>
			<rect x="0" y="821.89" width="152" height="20" class="st37"/>
			<text x="62" y="836.09" class="st2">User</text>		</g>
		<g id="shape180-158" transform="translate(1097.86,-461.89)">
			<title>工作表.180</title>
			<desc>Kernel</desc>
			<rect x="0" y="821.89" width="152" height="20" class="st37"/>
			<text x="55" y="836.09" class="st2">Kernel</text>		</g>
		<g id="shape196-161" transform="translate(1505.4,310.54) rotate(69.8216)">
			<title>曲线连接 2.196</title>
			<desc>VLAN 100</desc>
			<path d="M90.6 841.89 A123.163 123.163 0 0 1 4.53 843.58 L4.19 843.45" class="st38"/>
			<rect x="-798.695" y="331.103" width="32.001" height="9.59985" transform="rotate(-69.8216)" class="st35"/>
			<text x="-798.7" y="338.3" transform="rotate(-69.8216)" class="st23">VLAN 100</text>		</g>
		<g id="shape197-169" transform="translate(447.812,-101.165) rotate(-20.7752)">
			<title>曲线连接 2.197</title>
			<desc>VLAN ...</desc>
			<path d="M0 841.89 A4339.06 4339.06 0 0 1 170.86 841.79 L171.22 841.8" class="st40"/>
			<rect x="364.439" y="750.359" width="32.001" height="9.59985" transform="rotate(20.7752)" class="st35"/>
			<text x="364.44" y="757.56" transform="rotate(20.7752)" class="st23">VLAN ...</text>		</g>
		<g id="shape213-176" transform="translate(809.26,-212.598)">
			<title>工作表.213</title>
			<desc>……</desc>
			<rect x="0" y="821.89" width="203.559" height="20" class="st37"/>
			<text x="85.78" y="836.69" class="st41">……</text>		</g>
		<g id="shape217-179" transform="translate(111.812,132.781) rotate(-48.9211)">
			<title>曲线连接 2.217</title>
			<desc>VLAN X</desc>
			<path d="M0 841.89 A123.603 123.603 0 0 1 70.58 840.51 L70.93 840.61" class="st40"/>
			<rect x="642.914" y="516.207" width="24.0007" height="9.59985" transform="rotate(48.9211)" class="st35"/>
			<text x="642.91" y="523.41" transform="rotate(48.9211)" class="st23">VLAN X</text>		</g>
		<g id="shape218-186" transform="translate(336.18,-49.1829) rotate(-29.1633)">
			<title>曲线连接 2.218</title>
			<desc>VLAN Y</desc>
			<path d="M-0 841.89 A313.216 313.216 0 0 1 111.59 841.03 L111.94 841.09" class="st40"/>
			<rect x="446.394" y="697.263" width="24.0007" height="9.59985" transform="rotate(29.1633)" class="st35"/>
			<text x="446.39" y="704.46" transform="rotate(29.1633)" class="st23">VLAN Y</text>		</g>
		<g id="group219-193" transform="translate(785.433,-212.598)">
			<title>工作表.219</title>
			<g id="shape200-194" transform="translate(0,-2.51101)">
				<title>矩形.200</title>
				<desc>brX</desc>
				<path d="M0 841.89 L38.61 841.89 L38.61 827.72 L0 827.72 L0 841.89 Z" class="st42"/>
				<text x="20" y="838.92" class="st23">brX</text>			</g>
			<g id="shape198-197" transform="translate(2.57187,0)">
				<title>框.198</title>
				<path d="M0 841.89 L15.7 841.89 L15.7 836.87 L0 836.87 L0 841.89 Z" class="st43"/>
			</g>
		</g>
		<g id="group220-199" transform="translate(837.606,-212.598)">
			<title>工作表.220</title>
			<g id="shape221-200" transform="translate(0,-2.51101)">
				<title>矩形.200</title>
				<desc>brY</desc>
				<path d="M0 841.89 L38.61 841.89 L38.61 827.72 L0 827.72 L0 841.89 Z" class="st42"/>
				<text x="20" y="838.92" class="st23">brY</text>			</g>
			<g id="shape222-203" transform="translate(2.57187,0)">
				<title>框.198</title>
				<path d="M0 841.89 L15.7 841.89 L15.7 836.87 L0 836.87 L0 841.89 Z" class="st43"/>
			</g>
		</g>
		<g id="shape223-205" transform="translate(-55.1308,584.934) rotate(-94.5597)">
			<title>流导向符 1.223</title>
			<path d="M0 841.89 L37.84 841.89" class="st33"/>
		</g>
		<g id="shape224-212" transform="translate(848.613,1305.69) rotate(-176.273)">
			<title>流导向符 1.224</title>
			<path d="M0 841.89 L56.47 841.89" class="st44"/>
		</g>
		<g id="group234-221" transform="translate(1026.99,-433.073)">
			<title>工作表.234</title>
			<g id="shape235-222" transform="translate(60.1732,1557.8) rotate(180)">
				<title>工作表.235</title>
				<desc>read()</desc>
				<rect x="0" y="715.91" width="23" height="125.979" class="st37"/>
				<text x="11.5" y="763.9" writing-mode="tb-rl" class="st9">read()</text>			</g>
		</g>
		<g id="group170-225" transform="translate(952.646,-433.073)">
			<title>工作表.170</title>
			<g id="shape171-226" transform="translate(60.1732,1557.8) rotate(180)">
				<title>工作表.171</title>
				<desc>read()</desc>
				<rect x="0" y="715.91" width="23" height="125.979" class="st37"/>
				<text x="11.5" y="763.9" writing-mode="tb-rl" class="st46">read()</text>			</g>
		</g>
		<g id="shape241-229" transform="translate(1854.71,381.26) rotate(90)">
			<title>曲线连接 2.241</title>
			<path d="M0 841.89 A319.08 319.08 0 0 1 47.64 841.89" class="st29"/>
		</g>
		<g id="shape50-236" transform="translate(991.559,-412.992)">
			<title>框.50</title>
			<desc>字符设备驱动 CharDev</desc>
			<rect x="0" y="821.89" width="120.472" height="20" class="st22"/>
			<text x="10.24" y="834.89" class="st9">字符设备驱动 CharDev</text>		</g>
		<g id="shape48-239" transform="translate(979.651,-460.63)">
			<title>框.48</title>
			<desc>/dev/net/tun(FD)</desc>
			<rect x="0" y="834.803" width="144.567" height="7.08661" class="st22"/>
			<text x="36.28" y="841.05" class="st47">/dev/net/tun(FD)</text>		</g>
		<g id="shape6-242" transform="translate(979.651,-514.712)">
			<title>矩形.6</title>
			<desc>OpenVPN</desc>
			<g id="shadow6-243" transform="matrix(1,0,0,1,-2.12132,2.12132)" class="st6">
				<rect x="0" y="813.543" width="62.3622" height="28.3465" class="st7"/>
			</g>
			<rect x="0" y="813.543" width="62.3622" height="28.3465" class="st48"/>
			<text x="13.68" y="830.72" class="st9">OpenVPN</text>		</g>
		<g id="group122-248" transform="translate(979.651,-479.531)">
			<title>工作表.122</title>
			<g id="group117-249">
				<title>工作表.117</title>
			</g>
		</g>
		<g id="shape173-250" transform="translate(1008,-467.717)">
			<title>顶部/底部到侧边.173</title>
			<path d="M0 841.89 L0 795.43" class="st49"/>
		</g>
		<g id="group174-256" transform="translate(985.813,-483.47)">
			<title>工作表.174</title>
		</g>
		<g id="group229-257" transform="translate(1066.96,-475.593)">
			<title>工作表.229</title>
			<g id="group230-258">
				<title>工作表.230</title>
			</g>
		</g>
		<g id="shape231-259" transform="translate(1090.77,-467.717)">
			<title>顶部/底部到侧边.55</title>
			<path d="M0 841.89 L0 794.89" class="st51"/>
		</g>
		<g id="group232-265" transform="translate(1073.12,-479.531)">
			<title>工作表.232</title>
		</g>
		<g id="shape233-266" transform="translate(1104.94,1169.07) scale(1,-1)">
			<title>顶部/底部到侧边.175</title>
			<path d="M0 841.89 L0 794.89" class="st51"/>
		</g>
		<g id="group168-271" transform="translate(980.992,-433.073)">
			<title>工作表.168</title>
			<g id="shape169-272" transform="translate(60.1732,1557.8) rotate(180)">
				<title>工作表.169</title>
				<desc>write()</desc>
				<rect x="0" y="715.91" width="23" height="125.979" class="st37"/>
				<text x="11.5" y="761.4" writing-mode="tb-rl" class="st46">write()</text>			</g>
		</g>
		<g id="group236-275" transform="translate(1066.03,-433.073)">
			<title>工作表.236</title>
			<g id="shape237-276" transform="translate(60.1732,1557.8) rotate(180)">
				<title>工作表.237</title>
				<desc>write()</desc>
				<rect x="0" y="715.91" width="23" height="125.979" class="st37"/>
				<text x="11.5" y="761.4" writing-mode="tb-rl" class="st9">write()</text>			</g>
		</g>
		<g id="shape243-279" transform="translate(1021.22,-467.717)">
			<title>顶部/底部到侧边.243</title>
			<path d="M0 841.89 L0 795.43" class="st53"/>
		</g>
		<g id="shape247-285" transform="translate(964.858,1335.93) rotate(-177.82)">
			<title>曲线连接 2.247</title>
			<desc>Xmit</desc>
			<path d="M36.88 841.89 A191.388 191.388 -180 0 0 -0 841.89" class="st54"/>
			<rect x="3.56478" y="-847.092" width="20.0006" height="12.0001" transform="rotate(177.82)" class="st35"/>
			<text x="3.56" y="-838.09" transform="rotate(177.82)" class="st9">Xmit</text>		</g>
		<g id="shape248-292" transform="translate(965.342,1323.11) rotate(-177.733)">
			<title>曲线连接 2.248</title>
			<desc>Rx</desc>
			<path d="M35.46 841.89 A177.003 177.003 -180 0 0 -0 841.89" class="st55"/>
			<rect x="10.5512" y="-847.042" width="10.0003" height="12.0001" transform="rotate(177.733)" class="st35"/>
			<text x="10.55" y="-838.04" transform="rotate(177.733)" class="st9">Rx</text>		</g>
		<g id="shape249-299" transform="translate(1066.68,-514.712)">
			<title>矩形.249</title>
			<desc>qemu-kvm</desc>
			<g id="shadow249-300" transform="matrix(1,0,0,1,-2.12132,2.12132)" class="st6">
				<rect x="0" y="813.543" width="62.3622" height="28.3465" class="st7"/>
			</g>
			<rect x="0" y="813.543" width="62.3622" height="28.3465" class="st48"/>
			<text x="11.18" y="830.72" class="st9">qemu-kvm</text>		</g>
		<g id="shape253-305" transform="translate(554.142,-135.906)">
			<title>工作表.253</title>
			<desc>M</desc>
			<rect x="0" y="821.89" width="152" height="20" class="st37"/>
			<text x="73" y="835.49" class="st56">M</text>		</g>
		<g id="shape254-308" transform="translate(701.008,-135.906)">
			<title>工作表.254</title>
			<desc>B</desc>
			<rect x="0" y="821.89" width="152" height="20" class="st37"/>
			<text x="73" y="835.49" class="st56">B</text>		</g>
		<g id="shape255-311" transform="translate(653.354,-230.945)">
			<title>工作表.255</title>
			<desc>C</desc>
			<rect x="0" y="821.89" width="152" height="20" class="st37"/>
			<text x="73" y="835.49" class="st56">C</text>		</g>
		<g id="shape256-314" transform="translate(738.394,-202.598)">
			<title>工作表.256</title>
			<desc>Cx</desc>
			<rect x="0" y="821.89" width="152" height="20" class="st37"/>
			<text x="70.75" y="835.79" class="st56">C<tspan class="st57">x</tspan></text>		</g>
		<g id="shape258-318" transform="translate(913.606,-382.677)">
			<title>工作表.258</title>
			<desc>H</desc>
			<rect x="0" y="821.89" width="152" height="20" class="st37"/>
			<text x="73" y="835.49" class="st56">H</text>		</g>
		<g id="shape259-321" transform="translate(780.913,-295.775)">
			<title>工作表.259</title>
			<desc>E</desc>
			<rect x="0" y="821.89" width="152" height="20" class="st37"/>
			<text x="73" y="835.49" class="st56">E</text>		</g>
		<g id="shape260-324" transform="translate(719.087,-320.157)">
			<title>工作表.260</title>
			<desc>J</desc>
			<rect x="0" y="821.89" width="152" height="20" class="st37"/>
			<text x="73" y="835.49" class="st56">J</text>		</g>
		<g id="shape261-327" transform="translate(960.031,-330.157)">
			<title>工作表.261</title>
			<desc>G</desc>
			<rect x="0" y="821.89" width="152" height="20" class="st37"/>
			<text x="73" y="835.49" class="st56">G</text>		</g>
		<g id="shape262-330" transform="translate(786.047,-202.598)">
			<title>工作表.262</title>
			<desc>Cy</desc>
			<rect x="0" y="821.89" width="152" height="20" class="st37"/>
			<text x="70.75" y="835.79" class="st56">C<tspan class="st57">y</tspan></text>		</g>
		<g id="shape263-334" transform="translate(842.74,-206.772)">
			<title>工作表.263</title>
			<desc>Cn</desc>
			<rect x="0" y="821.89" width="152" height="20" class="st37"/>
			<text x="70.5" y="835.79" class="st56">C<tspan class="st57">n</tspan></text>		</g>
		<g id="shape264-338" transform="translate(837.606,-376.85)">
			<title>工作表.264</title>
			<desc>I</desc>
			<rect x="0" y="821.89" width="152" height="20" class="st37"/>
			<text x="73" y="835.49" class="st56">I</text>		</g>
		<g id="shape265-341" transform="translate(676.299,-382.677)">
			<title>工作表.265</title>
			<desc>K</desc>
			<rect x="0" y="821.89" width="152" height="20" class="st37"/>
			<text x="73" y="835.49" class="st56">K</text>		</g>
		<g id="shape266-344" transform="translate(704.913,-287.638)">
			<title>工作表.266</title>
			<desc>D</desc>
			<rect x="0" y="821.89" width="152" height="20" class="st37"/>
			<text x="73" y="835.49" class="st56">D</text>		</g>
		<g id="shape267-347" transform="translate(630.142,-160.079)">
			<title>工作表.267</title>
			<desc>L</desc>
			<rect x="0" y="821.89" width="152" height="20" class="st37"/>
			<text x="73" y="835.49" class="st56">L</text>		</g>
		<g id="shape268-350" transform="translate(974.205,-447.717)">
			<title>工作表.268</title>
			<desc>N</desc>
			<rect x="0" y="821.89" width="152" height="20" class="st37"/>
			<text x="73" y="835.49" class="st56">N</text>		</g>
		<g id="shape272-353" transform="translate(939.9,-539.053)">
			<title>工作表.272</title>
			<desc>P1</desc>
			<rect x="0" y="821.89" width="152" height="20" class="st37"/>
			<text x="70.5" y="835.79" class="st56">P<tspan class="st57">1</tspan></text>		</g>
		<g id="shape273-357" transform="translate(1021.86,-538.583)">
			<title>工作表.273</title>
			<desc>P2</desc>
			<rect x="0" y="821.89" width="152" height="20" class="st37"/>
			<text x="70.5" y="835.79" class="st56">P<tspan class="st57">2</tspan></text>		</g>
		<g id="shape276-361" transform="translate(1551.71,199.771) rotate(77.0564)">
			<title>曲线连接 2.276</title>
			<desc>Local IN</desc>
			<path d="M54.98 841.89 A50.3824 50.3824 0 0 1 6.15 845.31 L5.83 845.13" class="st58"/>
			<rect x="-838.294" y="212.395" width="32.001" height="9.59985" transform="rotate(-77.0564)" class="st35"/>
			<text x="-838.29" y="219.6" transform="rotate(-77.0564)" class="st23">Local IN</text>		</g>
		<g id="shape277-369" transform="translate(-50.3808,261.166) rotate(-77.6014)">
			<title>曲线连接 2.277</title>
			<desc>Local OUT</desc>
			<path d="M0 841.89 A75.1634 75.1634 -180 0 0 54.86 841.89" class="st59"/>
			<rect x="815.207" y="150.285" width="36.0011" height="9.59985" transform="rotate(77.6014)" class="st35"/>
			<text x="815.21" y="157.48" transform="rotate(77.6014)" class="st23">Local OUT</text>		</g>
		<g id="shape278-377" transform="translate(780.913,-453.543)">
			<title>工作表.278</title>
			<desc>Q</desc>
			<rect x="0" y="821.89" width="152" height="20" class="st37"/>
			<text x="73" y="835.49" class="st56">Q</text>		</g>
		<g id="shape279-380" transform="translate(658.488,-429.37)">
			<title>工作表.279</title>
			<desc>R</desc>
			<rect x="0" y="821.89" width="152" height="20" class="st37"/>
			<text x="73" y="835.49" class="st56">R</text>		</g>
		<g id="shape280-383" transform="translate(715.181,-429.37)">
			<title>工作表.280</title>
			<desc>S</desc>
			<rect x="0" y="821.89" width="152" height="20" class="st37"/>
			<text x="73" y="835.49" class="st56">S</text>		</g>
		<g id="shape281-386" transform="translate(536.748,-119.217)">
			<title>框</title>
			<desc>外部网络</desc>
			<rect x="0" y="825.206" width="334.339" height="16.6842" class="st22"/>
			<text x="151.17" y="835.95" class="st23">外部网络</text>		</g>
		<g id="shape251-389" transform="translate(648.22,-117.559)">
			<title>工作表.251</title>
			<desc>A</desc>
			<rect x="0" y="821.89" width="152" height="20" class="st37"/>
			<text x="73" y="835.49" class="st56">A</text>		</g>
		<g id="shape282-392" transform="translate(987.307,-146.835)">
			<title>矩形.282</title>
			<desc>数据流A(tag 100) --à P2 A-&#62;B-&#62;L-&#62;C-&#62;D-&#62;E-&#62;G-&#62;N-&#62;P2 P2执行系统调用read(...</desc>
			<path d="M0 841.89 L240.38 841.89 L240.38 678.49 L0 678.49 L0 841.89 Z" class="st60"/>
			<text x="4" y="692.24" class="st9">数据流：A(tag 100) --<tspan class="st61">à</tspan><tspan class="st62">  </tspan><tspan
						class="st62">P</tspan><tspan class="st62">2 </tspan><tspan x="4" dy="1.284em" class="st63">A</tspan><tspan
						class="st63">-</tspan><tspan class="st63">&#62;</tspan><tspan class="st63">B</tspan><tspan class="st63">-</tspan><tspan
						class="st63">&#62;</tspan><tspan class="st63">L</tspan><tspan class="st63">-</tspan><tspan class="st63">&#62;</tspan><tspan
						class="st63">C</tspan><tspan class="st63">-</tspan><tspan class="st63">&#62;</tspan><tspan class="st63">D</tspan><tspan
						class="st63">-</tspan><tspan class="st63">&#62;</tspan><tspan class="st63">E</tspan><tspan class="st63">-</tspan><tspan
						class="st63">&#62;</tspan><tspan class="st63">G</tspan><tspan class="st63">-</tspan><tspan class="st63">&#62;</tspan><tspan
						class="st63">N</tspan><tspan class="st63">-</tspan><tspan class="st63">&#62;</tspan><tspan class="st63">P</tspan><tspan
						class="st63">2 </tspan><tspan class="st64"> </tspan><tspan class="st64">P</tspan><tspan class="st64">2</tspan><tspan
						class="st65">执行系统调用</tspan><tspan class="st63">read</tspan><tspan class="st63">()</tspan><tspan
						class="st65">读</tspan><tspan x="4" dy="1.308em" class="st65">取数据</tspan></text>		</g>
		<g id="shape287-433" transform="translate(591.528,-206.772)">
			<title>工作表.287</title>
			<desc>T</desc>
			<rect x="0" y="821.89" width="152" height="20" class="st37"/>
			<text x="73" y="835.49" class="st56">T</text>		</g>
		<g id="shape290-436" transform="translate(-98.3622,367.46) rotate(-90)">
			<title>流导向符 1.290</title>
			<path d="M0 841.89 L35.81 841.89" class="st33"/>
		</g>
		<g id="shape292-443" transform="translate(662.394,-490.236)">
			<title>工作表.292</title>
			<desc>U</desc>
			<rect x="0" y="821.89" width="152" height="20" class="st37"/>
			<text x="73" y="835.49" class="st56">U</text>		</g>
		<g id="shape295-446" transform="translate(860.819,-283.465)">
			<title>框.295</title>
			<desc>tap1</desc>
			<path d="M0 841.89 L24.44 841.89 L24.44 829.82 L0 829.82 L0 841.89 Z" class="st43"/>
			<text x="4.22" y="838.25" class="st27">tap1</text>		</g>
		<g id="shape299-449" transform="translate(860.819,-269.291)">
			<title>框.299</title>
			<desc>...</desc>
			<path d="M0 841.89 L24.44 841.89 L24.44 829.82 L0 829.82 L0 841.89 Z" class="st43"/>
			<text x="4.66" y="838.85" class="st66">...</text>		</g>
		<g id="shape300-452" transform="translate(860.819,-255.118)">
			<title>框.300</title>
			<desc>tapN</desc>
			<path d="M0 841.89 L24.44 841.89 L24.44 829.82 L0 829.82 L0 841.89 Z" class="st43"/>
			<text x="4.22" y="838.85" class="st27">tapN</text>		</g>
		<g id="shape302-455" transform="translate(1939.88,385.514) rotate(90.2895)">
			<title>曲线连接 2.302</title>
			<path d="M0 841.89 A107.698 107.698 0 0 1 27.64 841.89" class="st67"/>
		</g>
		<g id="shape305-464" transform="translate(771.874,-311.811)">
			<title>框.305</title>
			<desc>br0</desc>
			<path d="M0 841.89 L24.44 841.89 L24.44 829.82 L0 829.82 L0 841.89 Z" class="st68"/>
			<text x="6.22" y="838.25" class="st27">br0</text>		</g>
		<g id="shape308-467" transform="translate(1112.03,-121.732)">
			<title>工作表.308</title>
			<desc>BY lijian 2017-10-9 www.isjian.com</desc>
			<rect x="0" y="821.89" width="152" height="20" class="st37"/>
			<text x="38" y="829.49" class="st23">BY lijian 2017-10-9 <tspan x="48" dy="1.2em" class="st69">www</tspan>.isjian.com</text>		</g>
		<g id="shape309-471" transform="translate(733.26,-235.118)">
			<title>工作表.309</title>
			<desc>brctl addbr br0 brctl addif br0 em2.100</desc>
			<rect x="0" y="821.89" width="152" height="20" class="st37"/>
			<text x="4" y="833.09" class="st23">brctl addbr br0 <tspan x="4" dy="1.2em" class="st69">brctl addif br</tspan>0 em2.100 </text>		</g>
	</g>
</svg>
